<?xml version="1.0" encoding="UTF-8" standalone="no"?>
<!-- Created with Inkscape (http://www.inkscape.org/) -->

<svg
   version="1.1"
   id="svg132"
   width="100"
   height="35"
   viewBox="0 0 99.999999 35"
   sodipodi:docname="pcguide-logo-B.svg"
   inkscape:version="1.2.1 (9c6d41e410, 2022-07-14)"
   xmlns:inkscape="http://www.inkscape.org/namespaces/inkscape"
   xmlns:sodipodi="http://sodipodi.sourceforge.net/DTD/sodipodi-0.dtd"
   xmlns="http://www.w3.org/2000/svg"
   xmlns:svg="http://www.w3.org/2000/svg">
  <defs
     id="defs136" />
  <sodipodi:namedview
     id="namedview134"
     pagecolor="#505050"
     bordercolor="#eeeeee"
     borderopacity="1"
     inkscape:showpageshadow="0"
     inkscape:pageopacity="0"
     inkscape:pagecheckerboard="0"
     inkscape:deskcolor="#505050"
     showgrid="false"
     inkscape:zoom="7.1240981"
     inkscape:cx="48.427183"
     inkscape:cy="30.319627"
     inkscape:window-width="1920"
     inkscape:window-height="1009"
     inkscape:window-x="-8"
     inkscape:window-y="-8"
     inkscape:window-maximized="1"
     inkscape:current-layer="g140"
     showguides="true"
     inkscape:lockguides="false">
    <inkscape:page
       x="0"
       y="0"
       id="page138"
       width="100"
       height="35" />
    <sodipodi:guide
       position="-13.896496,64.617784"
       orientation="0,-1"
       id="guide752"
       inkscape:locked="false" />
    <sodipodi:guide
       position="-18.247924,70.372899"
       orientation="0,-1"
       id="guide754"
       inkscape:locked="false" />
  </sodipodi:namedview>
  <g
     id="g140"
     inkscape:groupmode="layer"
     inkscape:label="Page 1"
     transform="matrix(1.3333333,0,0,-1.3333333,0,320.00013)">
    <g
       id="g550">
      <g
         id="g523">
        <path
           d="m 3.1358956,235.87104 h 3.304184 v -5.36962 h -3.304184 z"
           style="fill:#000000;fill-opacity:1;fill-rule:evenodd;stroke:none;stroke-width:0.12621"
           id="path142"
           clip-path="none" />
        <path
           d="m 3.1353907,229.7458 h 3.2810876 v -5.56852 H 3.1353907 Z"
           style="fill:#000000;fill-opacity:1;fill-rule:evenodd;stroke:none;stroke-width:0.12621"
           id="path144"
           clip-path="none" />
        <path
           d="m 3.1507884,223.43491 h 3.2656899 v -5.56852 H 3.1507884 Z"
           style="fill:#000000;fill-opacity:1;fill-rule:evenodd;stroke:none;stroke-width:0.12621"
           id="path146"
           clip-path="none" />
        <g
           id="g156"
           transform="matrix(0.12621024,0,0,0.12621024,9.0126735,235.8697)"
           clip-path="none"
           style="fill:#000000">
          <path
             d="m 0,0 v 0 c 7.159,0 13.018,-6.691 13.018,-14.869 0,-9.266 0.027,-18.515 0.073,-27.781 -8.798,-0.029 -17.049,0.116 -25.847,0.116 -0.019,24.876 -0.093,24.462 0,42.649 C -0.097,0.115 -3.445,0 0,0"
             style="fill:#000000;fill-opacity:1;fill-rule:evenodd;stroke:none"
             id="path158" />
        </g>
        <path
           d="M 53.552,175.987 H 79.368 V 131.866 H 53.552 Z"
           style="fill:#000000;fill-opacity:1;fill-rule:evenodd;stroke:none"
           id="path160"
           clip-path="none"
           transform="matrix(0.12621024,0,0,0.12621024,0.64778689,207.53444)" />
        <path
           d="m 89.726,175.987 h 26.59 v -44.121 h -26.59 z"
           style="fill:#000000;fill-opacity:1;fill-rule:evenodd;stroke:none"
           id="path162"
           clip-path="none"
           transform="matrix(0.12621024,0,0,0.12621024,0.64778689,207.53444)" />
        <path
           d="m 124.033,224.521 h 25.893 v -42.65 h -25.893 z"
           style="fill:#000000;fill-opacity:1;fill-rule:evenodd;stroke:none"
           id="path164"
           clip-path="none"
           transform="matrix(0.12621024,0,0,0.12621024,0.64778689,207.53444)" />
        <path
           d="m 124.033,125.984 h 25.893 V 81.863 h -25.893 z"
           style="fill:#000000;fill-opacity:1;fill-rule:evenodd;stroke:none"
           id="path166"
           clip-path="none"
           transform="matrix(0.12621024,0,0,0.12621024,0.64778689,207.53444)" />
        <g
           id="g168"
           transform="matrix(0.12621024,0,0,0.12621024,11.977491,230.50143)"
           clip-path="none"
           style="fill:#000000">
          <path
             d="M 0,0 C -0.095,9.495 0,19.185 0,28.679 0,36.857 5.746,42.65 12.942,42.65 H 26.53 C 26.549,17.774 26.624,18.188 26.53,0 H 0"
             style="fill:#000000;fill-opacity:1;fill-rule:evenodd;stroke:none"
             id="path170" />
        </g>
        <g
           id="g172"
           transform="matrix(0.12621024,0,0,0.12621024,13.624042,217.86646)"
           clip-path="none"
           style="fill:#000000">
          <path
             d="m 0,0 v 0 c -7.198,0 -13.089,6.675 -13.089,14.834 0,9.242 0.096,20.029 0.05,29.272 8.846,0.03 17.693,0 26.54,0 C 13.52,19.289 13.47,18.144 13.377,0 H 0"
             style="fill:#000000;fill-opacity:1;fill-rule:evenodd;stroke:none"
             id="path174" />
        </g>
        <path
           d="m 160.284,175.987 h 25.894 v -44.121 h -25.894 z"
           style="fill:#000000;fill-opacity:1;fill-rule:evenodd;stroke:none"
           id="path176"
           clip-path="none"
           transform="matrix(0.12621024,0,0,0.12621024,0.64778689,207.53444)" />
        <g
           id="g178"
           transform="matrix(0.12621024,0,0,0.12621024,20.882431,230.48841)"
           clip-path="none"
           style="fill:#000000">
          <path
             d="m 0,0 c -0.092,9.495 0.001,19.183 0.001,28.677 0,8.178 5.589,13.971 12.589,13.971 H 25.807 C 25.826,17.772 25.898,18.188 25.807,0 H 0"
             style="fill:#000000;fill-opacity:1;fill-rule:evenodd;stroke:none"
             id="path180" />
        </g>
        <g
           id="g182"
           transform="matrix(0.12621024,0,0,0.12621024,22.520627,217.86856)"
           clip-path="none"
           style="fill:#000000">
          <path
             d="m 0,0 v 0 c -7.229,0 -13.021,6.423 -13.021,14.632 0,9.302 0.096,20.157 0.05,29.459 C -4.088,44.12 3.984,44.088 12.867,44.088 12.887,19.114 12.839,18.238 12.745,-0.021 -0.037,-0.021 3.479,0 0,0"
             style="fill:#000000;fill-opacity:1;fill-rule:evenodd;stroke:none"
             id="path184" />
        </g>
        <path
           d="m 26.79865,235.87101 v 0 c 0.908461,0 1.651966,-0.84447 1.651966,-1.87662 0,-1.16946 0.02158,-2.33678 0.02739,-3.50625 -1.116455,-0.004 -2.235688,2.6e-4 -3.352144,2.6e-4 -0.0025,3.1396 -0.01186,3.0871 -1.26e-4,5.38261 h 1.672917"
           style="fill:#000000;fill-opacity:1;fill-rule:evenodd;stroke:none;stroke-width:0.12621"
           id="path188"
           clip-path="none" />
        <g
           id="g190"
           transform="matrix(0.12621024,0,0,0.12621024,25.125695,226.72964)"
           clip-path="none"
           style="fill:#000000">
          <path
             d="M 0,0 26.527,-0.289 V -20.214 L 0,-20.223 Z"
             style="fill:#000000;fill-opacity:1;fill-rule:evenodd;stroke:none"
             id="path192" />
        </g>
        <path
           d="m 193.945,125.984 h 26.527 V 81.969 h -26.527 z"
           style="fill:#000000;fill-opacity:1;fill-rule:evenodd;stroke:none"
           id="path194"
           clip-path="none"
           transform="matrix(0.12621024,0,0,0.12621024,0.64778689,207.53444)" />
      </g>
      <text
         xml:space="preserve"
         transform="scale(0.88170274,-1.1341691)"
         style="font-variant:normal;font-weight:normal;font-stretch:normal;font-size:10.6222px;font-family:Impact;-inkscape-font-specification:Impact;writing-mode:lr-tb;fill:#000000;fill-opacity:1;fill-rule:nonzero;stroke:none;stroke-width:0.182982"
         id="text198"
         x="35.237583"
         y="-194.33537"><tspan
           x="35.237583 40.569908 46.45459 52.307388 58.117722 61.176907 67.050964 71.464478 73.429573 77.466003"
           y="-194.33537"
           sodipodi:role="line"
           id="tspan196"
           style="fill:#000000;stroke-width:0.182982">PCGUIDE.LK</tspan></text>
    </g>
  </g>
</svg>
